<svg xmlns="http://www.w3.org/2000/svg" width="744" height="539.286" viewBox="0 0 744 539.286"><path d="M309.114,584.643v130h325.7c37.109,0,67.3-29.16,67.3-65s-30.192-65-67.3-65Z" transform="translate(-39.228 -180.357)" fill="#f2f2f2"/><path d="M302.114,713.643a5,5,0,0,0,5,5h334.5a68.5,68.5,0,0,0,0-137h-334.5a5,5,0,1,0,0,10h334.5a58.5,58.5,0,0,1,0,117h-334.5A5,5,0,0,0,302.114,713.643Z" transform="translate(-40.228 -180.357)" fill="#299792"/><path d="M352.114,614.643h350a1,1,0,0,0,0-2h-350a1,1,0,0,0,0,2Z" transform="translate(-82.228 -180.357)" fill="#ccc"/><path d="M352.114,638.643h350a1,1,0,0,0,0-2h-350a1,1,0,0,0,0,2Z" transform="translate(-82.228 -180.357)" fill="#ccc"/><path d="M352.114,662.643h350a1,1,0,0,0,0-2h-350a1,1,0,0,0,0,2Z" transform="translate(-82.228 -180.357)" fill="#ccc"/><path d="M352.114,686.643h350a1,1,0,0,0,0-2h-350a1,1,0,0,0,0,2Z" transform="translate(-82.228 -180.357)" fill="#ccc"/><path d="M593.056,609.114l81.565,101.228,253.615-204.35c28.9-23.283,34.111-64.932,11.624-92.84s-64.292-31.671-93.188-8.388Z" transform="translate(-574.888 -180.357)" fill="#f2f2f2"/><path d="M666.89,714.583a5,5,0,0,0,7.031.756L934.389,505.467a68.5,68.5,0,1,0-85.957-106.679L587.964,608.66a5,5,0,0,0,6.274,7.787L854.707,406.575a58.5,58.5,0,0,1,73.408,91.106L667.647,707.553a5,5,0,0,0-.757,7.03Z" transform="translate(-574.014 -180.357)" fill="#ed7f3f"/><path d="M663.726,632.474l272.538-219.6a1,1,0,1,0-1.255-1.557l-272.538,219.6a1,1,0,1,0,1.255,1.557Z" transform="translate(-626.735 -180.357)" fill="#ccc"/><path d="M648.668,651.163l272.538-219.6a1,1,0,1,0-1.255-1.557L647.413,649.6a1,1,0,1,0,1.255,1.557Z" transform="translate(-596.619 -180.357)" fill="#ccc"/><path d="M633.61,669.851l272.538-219.6a1,1,0,0,0-1.255-1.557l-272.538,219.6a1,1,0,1,0,1.255,1.557Z" transform="translate(-566.503 -180.357)" fill="#ccc"/><path d="M618.551,688.539l272.538-219.6a1,1,0,0,0-1.255-1.557L617.3,686.982a1,1,0,0,0,1.255,1.557Z" transform="translate(-536.386 -180.357)" fill="#ccc"/><path d="M229,719.643H971a1,1,0,0,0,0-2H229a1,1,0,0,0,0,2Z" transform="translate(-228 -180.357)" fill="#ccc"/><path d="M321.216,390.622h11.432l5.437-44.1-16.873,0Z" transform="translate(84.703 0)" fill="#ffb8b8"/><path d="M326.648,387.355H304.6v13.882h35.93a13.882,13.882,0,0,0-13.882-13.882Z" transform="translate(98.87 0)" fill="#2f2e41"/><path d="M204.421,390.622h11.432l5.437-44.1-16.873,0Z" transform="translate(318.293 0)" fill="#ffb8b8"/><path d="M209.854,387.355H187.806v13.882h35.93a13.882,13.882,0,0,0-13.882-13.882Z" transform="translate(332.458 0)" fill="#2f2e41"/><path d="M551.971,243.89v-5a32.25,32.25,0,0,0-32.25-32.25h0a32.25,32.25,0,0,0-32.25,32.25v5a23.25,23.25,0,0,0,23.25,23.25h18a23.25,23.25,0,0,0,23.25-23.25Z" transform="translate(-67.442 -180.357)" fill="#2f2e41"/><circle cx="24.561" cy="24.561" r="24.561" transform="translate(427.718 39.381)" fill="#ffb8b8"/><path d="M634.488,376.475" transform="translate(-296.976 -180.357)" fill="#ffb8b8"/><path d="M424,328.713a9.377,9.377,0,0,0-14.28,1.677l-21.055-3.983-5.541,12.2,29.812,5.207A9.428,9.428,0,0,0,424,328.713Z" transform="translate(161.875 -180.357)" fill="#ffb8b8"/><path d="M421.368,284.328l-.275.417,34.526,22.745,58.258,18.6a3.508,3.508,0,0,1,2.412,3.738l-1.271,10.947a3.5,3.5,0,0,1-4.21,3.018l-54.83-11.753a19.807,19.807,0,0,1-7.371-3.246l-38.788-27.6a9.975,9.975,0,0,1,11.274-16.456Z" transform="translate(50.059 -180.357)" fill="#ccc"/><path d="M446.253,558.466a4.519,4.519,0,0,0,4.138-2.7l52.41-129.5a1.5,1.5,0,0,1,2.809.158l42.758,126.073a4.5,4.5,0,0,0,5.882,2.891l14.338-5.377a4.489,4.489,0,0,0,2.9-3.7c6.45-56.192-49.8-198.03-50.369-199.456l-.157-.395L469.681,357.8l-.107.116C449.116,380.23,432.3,520.995,429.137,548.987a4.478,4.478,0,0,0,2.971,4.747l12.656,4.476a4.457,4.457,0,0,0,1.489.257Z" transform="translate(-29.106 -180.357)" fill="#2f2e41"/><path d="M519.18,362.363c12.424,0,26.274-2.477,30.538-12.7l.1-.235-.133-.218c-3.365-5.521-7.813-14.94-5.422-16.708,4.709-3.482,6.994-9.21,6.792-17.025-.44-16.966-12-32.029-28.766-37.482h0a127.652,127.652,0,0,0-14.262-3.672,24.281,24.281,0,0,0-20.133,4.972,24.526,24.526,0,0,0-9.1,18.871c-.176,18.131,2.616,43.383,16.912,60.72a4.448,4.448,0,0,0,2.633,1.531,122.22,122.22,0,0,0,20.839,1.948Z" transform="translate(-57.853 -180.357)" fill="#ccc"/><path d="M545.923,361.684a9.556,9.556,0,0,0-11.679-6.664,9.407,9.407,0,0,0-1.448.536L516.81,341.007l-11.118,7.49,22.862,20.231a9.539,9.539,0,0,0,10.813,4.587,9.394,9.394,0,0,0,6.556-11.631Z" transform="translate(-79.974 -180.357)" fill="#ffb8b8"/><path d="M564.933,361.869a4.488,4.488,0,0,0,2.846-1.015l6.3-5.152a4.5,4.5,0,0,0-.109-7.055l-26.442-20.28a1.5,1.5,0,0,1-.283-2.095l16.32-21.576a13.285,13.285,0,0,0-.887-17.114h0a13.248,13.248,0,0,0-17.888-1.431l-.1.109-17.042,24.4a15.193,15.193,0,0,0,.36,24.185l34.246,26.139a4.507,4.507,0,0,0,2.679.883Z" transform="translate(-125.565 -180.357)" fill="#ccc"/><path d="M540.465,237.39V225.2l-21.756-9.5-20.744,9.5V237.39a2,2,0,0,0,2,2h38.5A2,2,0,0,0,540.465,237.39Z" transform="translate(-66.43 -180.357)" fill="#2f2e41"/><path d="M599.074,208.257c3.2-10.238-3.519-21.972-13.451-26.025s-21.813-1.22-30.194,5.476-13.58,16.724-16.335,27.091-3.278,21.177-3.786,31.891c-12.2,2.241-20.5,16.714-16.276,28.378s19.873,17.459,30.678,11.362,13.935-22.485,6.136-32.134a26.374,26.374,0,0,1,30.688-40.91C592.548,215.9,600.094,209.368,599.074,208.257Z" transform="translate(-145.796 -180.357)" fill="#2f2e41"/><path d="M381.614,281.44a104.448,104.448,0,0,0,42.348-9.275,4.473,4.473,0,0,0,2.652-4.1V231.643a4.505,4.505,0,0,0-4.5-4.5h-81a4.505,4.505,0,0,0-4.5,4.5v36.418a4.473,4.473,0,0,0,2.652,4.1h0a104.449,104.449,0,0,0,42.348,9.275Z" transform="translate(208.772 -180.357)" fill="#299792"/><path d="M380.745,251.937a4.5,4.5,0,0,0,1.749-.352l64.232-27.1a4.5,4.5,0,0,0-.153-8.353L382.34,191.765a4.484,4.484,0,0,0-3.211.007L315.757,216.14a4.5,4.5,0,0,0-.154,8.338l63.372,27.1a4.506,4.506,0,0,0,1.77.36Z" transform="translate(209.652 -180.357)" fill="#299792"/><circle cx="6" cy="6" r="6" transform="translate(621.886 82.286)" fill="#3f3d56"/><path d="M316.215,220.631l63.373,27.1a4,4,0,0,0,3.127.008l64.232-27.1a3.925,3.925,0,0,0,1.913-1.681,4,4,0,0,1-1.913,5.681l-64.232,27.1a4,4,0,0,1-3.127-.008l-63.373-27.1a4,4,0,0,1-1.895-5.673,3.927,3.927,0,0,0,1.895,1.673Z" transform="translate(208.82 -180.357)" opacity="0.2"/><path d="M378.614,268.62a1,1,0,0,1-1-1V234.158l-32.981-12.015a1,1,0,0,1-.03-2l32.981,12.015a1.962,1.962,0,0,1,1.433.575,1.986,1.986,0,0,1,.6,1.425v33.461A1,1,0,0,1,378.614,268.62Z" transform="translate(248.768 -180.357)" fill="#3f3d56"/></svg>